<?xml version="1.0" encoding="utf-8"?>
<!-- Generator: Adobe Illustrator 18.0.0, SVG Export Plug-In . SVG Version: 6.00 Build 0)  -->
<!DOCTYPE svg PUBLIC "-//W3C//DTD SVG 1.1//EN" "http://www.w3.org/Graphics/SVG/1.1/DTD/svg11.dtd">
<svg version="1.1" id="Camada_1" xmlns="http://www.w3.org/2000/svg" xmlns:xlink="http://www.w3.org/1999/xlink" x="0px" y="0px"
	 viewBox="0 0 149.1 24.7" enable-background="new 0 0 149.1 24.7" xml:space="preserve">
<path fill="#195B94" d="M136.9,24.3L136.9,24.3c6.6,0,12-5.4,12-12v0c0-6.6-5.4-12-12-12h0c-6.6,0-12,5.4-12,12v0
	C124.9,18.9,130.3,24.3,136.9,24.3z"/>
<path fill="#FFFFFF" d="M132.3,12.4c0,0.7-0.6,1.3-1.3,1.3c-0.7,0-1.3-0.6-1.3-1.3c0-0.7,0.6-1.3,1.3-1.3
	C131.7,11,132.3,11.6,132.3,12.4z"/>
<path fill="#FFFFFF" d="M137.6,12.4c0,0.7-0.6,1.3-1.3,1.3c-0.7,0-1.3-0.6-1.3-1.3c0-0.7,0.6-1.3,1.3-1.3
	C137,11,137.6,11.6,137.6,12.4z"/>
<path fill="#FFFFFF" d="M145.1,12.4c0,0.7-0.6,1.3-1.3,1.3c-0.7,0-1.3-0.6-1.3-1.3c0-0.7,0.6-1.3,1.3-1.3
	C144.5,11,145.1,11.6,145.1,12.4z"/>
<path fill="#FFFFFF" d="M137.2,18.9c0.5,0.5,0.5,1.4,0,1.9c-0.5,0.5-1.4,0.5-1.9,0c-0.5-0.5-0.5-1.4,0-1.9
	C135.9,18.4,136.7,18.4,137.2,18.9z"/>
<path fill="#FFFFFF" d="M141,15.2c0.5,0.5,0.5,1.4,0,1.9c-0.5,0.5-1.4,0.5-1.9,0c-0.5-0.5-0.5-1.4,0-1.9
	C139.6,14.7,140.5,14.7,141,15.2z"/>
<path fill="#FFFFFF" d="M139.1,7.7c0.5-0.5,1.4-0.5,1.9,0c0.5,0.5,0.5,1.4,0,1.9c-0.5,0.5-1.4,0.5-1.9,0
	C138.6,9.1,138.6,8.2,139.1,7.7z"/>
<path fill="#FFFFFF" d="M135.4,4c0.5-0.5,1.4-0.5,1.9,0c0.5,0.5,0.5,1.4,0,1.9c-0.5,0.5-1.4,0.5-1.9,0C134.8,5.3,134.8,4.5,135.4,4z
	"/>
<g>
	<path fill="#646464" d="M3.7,14.3l0.8-2.5l0.9-2.7h1.3l-2.4,6.8H3.1L0.7,9.1H2l0.9,2.7L3.7,14.3L3.7,14.3z"/>
	<path fill="#646464" d="M8.4,12.9v0.5c0,0.3,0,0.5,0.1,0.7c0.1,0.2,0.2,0.3,0.4,0.5s0.3,0.2,0.6,0.3c0.2,0.1,0.4,0.1,0.6,0.1
		c0.2,0,0.5,0,0.8-0.1c0.3-0.1,0.6-0.3,0.9-0.5l0.7,0.8c-0.3,0.4-0.7,0.6-1.2,0.7c-0.4,0.1-0.9,0.2-1.3,0.2c-0.4,0-0.8-0.1-1.1-0.2
		S8.3,15.6,8,15.3c-0.3-0.2-0.5-0.5-0.6-0.8c-0.2-0.3-0.2-0.7-0.2-1.1v-1.8c0-0.4,0.1-0.8,0.2-1.1C7.5,10.2,7.7,10,8,9.7
		s0.5-0.4,0.9-0.5S9.5,9,9.9,9c0.4,0,0.8,0.1,1.1,0.2s0.6,0.3,0.9,0.5c0.2,0.2,0.4,0.5,0.6,0.8s0.2,0.7,0.2,1.1v1.4H8.4z M11.5,11.7
		c0-0.3,0-0.5-0.1-0.7c-0.1-0.2-0.2-0.4-0.3-0.5c-0.1-0.1-0.3-0.2-0.5-0.3c-0.2-0.1-0.4-0.1-0.6-0.1c-0.2,0-0.4,0-0.6,0.1
		c-0.2,0.1-0.3,0.2-0.5,0.3S8.6,10.8,8.5,11c-0.1,0.2-0.1,0.4-0.1,0.7V12h3.1V11.7z"/>
	<path fill="#646464" d="M14.2,9.1h1.2v7.5c0,0.8-0.2,1.3-0.5,1.6c-0.3,0.3-0.8,0.5-1.5,0.5h-0.7v-1.1h0.5c0.4,0,0.6-0.1,0.8-0.2
		c0.1-0.2,0.2-0.5,0.2-0.9V9.1z M15.4,7c0,0.2-0.1,0.4-0.2,0.5c-0.1,0.1-0.3,0.2-0.5,0.2s-0.4-0.1-0.5-0.2c-0.1-0.1-0.2-0.3-0.2-0.5
		s0.1-0.4,0.2-0.5c0.1-0.1,0.3-0.2,0.5-0.2s0.4,0.1,0.5,0.2C15.4,6.6,15.4,6.8,15.4,7z"/>
	<path fill="#646464" d="M21,15.2c-0.5,0.3-1,0.5-1.3,0.6C19.3,15.9,19,16,18.7,16c-0.7,0-1.2-0.2-1.6-0.6s-0.6-0.9-0.6-1.5
		c0-0.4,0.1-0.7,0.3-1s0.4-0.5,0.6-0.6c0.3-0.2,0.5-0.3,0.8-0.3c0.3-0.1,0.5-0.1,0.8-0.1h2v-0.5c0-0.5-0.1-0.8-0.4-1
		c-0.3-0.2-0.6-0.3-1.1-0.3c-0.2,0-0.5,0-0.9,0.1c-0.3,0.1-0.7,0.2-1,0.5L17,9.8c0.4-0.3,0.9-0.6,1.3-0.7C18.7,9.1,19.2,9,19.5,9
		c0.9,0,1.6,0.2,2,0.6c0.4,0.4,0.6,1,0.6,1.8v4.5h-1L21,15.2L21,15.2z M21,12.9h-1.8c-0.1,0-0.3,0-0.5,0S18.4,13,18.2,13
		c-0.1,0.1-0.3,0.2-0.4,0.3c-0.1,0.1-0.1,0.3-0.1,0.6c0,0.3,0.1,0.6,0.3,0.7s0.5,0.2,0.9,0.2c0.2,0,0.4,0,0.5-0.1
		c0.2-0.1,0.4-0.1,0.6-0.2c0.2-0.1,0.4-0.2,0.5-0.2c0.2-0.1,0.3-0.2,0.5-0.2V12.9z"/>
	<path fill="#646464" d="M29.4,9c0.4,0,0.8,0.1,1.1,0.3c0.3,0.2,0.5,0.4,0.7,0.8c0.3-0.2,0.5-0.4,0.7-0.5c0.2-0.1,0.4-0.2,0.6-0.3
		c0.2-0.1,0.3-0.1,0.5-0.2c0.1,0,0.3,0,0.4,0c0.7,0,1.2,0.2,1.5,0.5c0.4,0.4,0.6,0.9,0.6,1.7v4.7h-1.2v-4.4c0-0.5-0.1-0.8-0.3-1
		s-0.5-0.3-0.9-0.3c-0.2,0-0.5,0.1-0.8,0.2c-0.3,0.1-0.6,0.4-1,0.6c0,0.1,0,0.2,0,0.2c0,0.1,0,0.1,0,0.2v4.4h-1.2v-4.5
		c0-0.5-0.1-0.8-0.3-1c-0.2-0.2-0.4-0.3-0.7-0.3c-0.3,0-0.6,0.1-0.8,0.2c-0.3,0.1-0.6,0.3-1,0.6v5h-1.2V9.1h1l0.1,0.8
		c0.2-0.2,0.5-0.3,0.7-0.4c0.2-0.1,0.4-0.2,0.5-0.3S28.8,9,29,9C29.1,9,29.2,9,29.4,9z"/>
	<path fill="#646464" d="M40.7,15.2c-0.5,0.3-1,0.5-1.3,0.6C39,15.9,38.7,16,38.4,16c-0.7,0-1.2-0.2-1.6-0.6s-0.6-0.9-0.6-1.5
		c0-0.4,0.1-0.7,0.3-1s0.4-0.5,0.6-0.6c0.3-0.2,0.5-0.3,0.8-0.3c0.3-0.1,0.5-0.1,0.8-0.1h2v-0.5c0-0.5-0.1-0.8-0.4-1
		c-0.3-0.2-0.6-0.3-1.1-0.3c-0.2,0-0.5,0-0.9,0.1c-0.3,0.1-0.7,0.2-1,0.5l-0.6-0.9c0.4-0.3,0.9-0.6,1.3-0.7C38.5,9.1,38.9,9,39.3,9
		c0.9,0,1.6,0.2,2,0.6c0.4,0.4,0.6,1,0.6,1.8v4.5h-1L40.7,15.2L40.7,15.2z M40.7,12.9h-1.8c-0.1,0-0.3,0-0.5,0S38.1,13,38,13
		c-0.1,0.1-0.3,0.2-0.4,0.3c-0.1,0.1-0.1,0.3-0.1,0.6c0,0.3,0.1,0.6,0.3,0.7s0.5,0.2,0.9,0.2c0.2,0,0.4,0,0.5-0.1
		c0.2-0.1,0.4-0.1,0.6-0.2c0.2-0.1,0.4-0.2,0.5-0.2c0.2-0.1,0.3-0.2,0.5-0.2V12.9z"/>
	<path fill="#646464" d="M44.6,7c0,0.2-0.1,0.4-0.2,0.5c-0.1,0.1-0.3,0.2-0.5,0.2c-0.2,0-0.4-0.1-0.5-0.2c-0.1-0.1-0.2-0.3-0.2-0.5
		c0-0.2,0.1-0.4,0.2-0.5c0.1-0.1,0.3-0.2,0.5-0.2c0.2,0,0.4,0.1,0.5,0.2C44.5,6.6,44.6,6.8,44.6,7z M43.3,15.9V9.1h1.2v6.8H43.3z"/>
	<path fill="#646464" d="M51,13.9c0,0.3-0.1,0.6-0.2,0.9s-0.3,0.5-0.6,0.6c-0.2,0.2-0.5,0.3-0.8,0.4C49,15.9,48.7,16,48.3,16
		c-0.5,0-0.9-0.1-1.4-0.2c-0.5-0.1-0.9-0.4-1.4-0.7l0.6-0.9c0.3,0.3,0.7,0.5,1,0.6c0.4,0.1,0.7,0.2,1.2,0.2c0.2,0,0.3,0,0.5-0.1
		s0.3-0.1,0.5-0.2c0.1-0.1,0.2-0.2,0.3-0.3c0.1-0.1,0.1-0.3,0.1-0.5c0-0.3-0.1-0.5-0.3-0.6S49,13.1,48.7,13c-0.3-0.1-0.7-0.1-1-0.2
		c-0.3-0.1-0.7-0.2-0.9-0.3c-0.3-0.1-0.5-0.3-0.7-0.6c-0.2-0.2-0.3-0.5-0.3-0.9c0-0.3,0.1-0.6,0.2-0.9c0.1-0.3,0.3-0.5,0.5-0.6
		c0.2-0.2,0.5-0.3,0.8-0.4s0.6-0.1,1-0.1c0.5,0,1,0.1,1.4,0.2c0.4,0.1,0.8,0.3,1.1,0.6l-0.6,0.9c-0.3-0.2-0.6-0.3-0.9-0.4
		c-0.3-0.1-0.6-0.1-1-0.1c-0.4,0-0.7,0.1-1,0.3c-0.2,0.2-0.4,0.4-0.4,0.7c0,0.2,0.1,0.4,0.3,0.5c0.2,0.1,0.5,0.2,0.8,0.3
		c0.3,0.1,0.6,0.1,1,0.2s0.7,0.2,1,0.3c0.3,0.1,0.6,0.3,0.8,0.6C50.9,13.2,51,13.5,51,13.9z"/>
	<path fill="#646464" d="M56.5,7c0,0.2-0.1,0.4-0.2,0.5c-0.1,0.1-0.3,0.2-0.5,0.2c-0.2,0-0.4-0.1-0.5-0.2C55.1,7.4,55,7.2,55,7
		c0-0.2,0.1-0.4,0.2-0.5c0.1-0.1,0.3-0.2,0.5-0.2c0.2,0,0.4,0.1,0.5,0.2C56.4,6.6,56.5,6.8,56.5,7z M55.1,15.9V9.1h1.2v6.8H55.1z"/>
	<path fill="#646464" d="M61.1,9c0.7,0,1.2,0.2,1.6,0.6s0.6,1,0.6,1.8v4.5h-1.2v-4.3c0-0.5-0.1-0.9-0.3-1.1
		c-0.2-0.2-0.5-0.3-0.9-0.3c-0.3,0-0.6,0.1-1,0.2c-0.4,0.1-0.7,0.3-1.1,0.5v5h-1.2V9.1h1l0.1,0.8c0.3-0.2,0.6-0.3,0.8-0.4
		c0.2-0.1,0.4-0.2,0.6-0.2C60.4,9.1,60.6,9,60.7,9C60.9,9,61,9,61.1,9z"/>
	<path fill="#646464" d="M66,10.1v5.8h-1.2v-5.8h-0.8V9.1h0.8V7.8c0-0.6,0.2-1.1,0.5-1.4S66.1,6,66.6,6h1.2v1h-1.1
		c-0.3,0-0.5,0.1-0.6,0.3C66,7.5,66,7.7,66,8v1.1h1.8v1.1H66z"/>
	<path fill="#646464" d="M73.5,13.5c0,0.4-0.1,0.7-0.2,1.1c-0.2,0.3-0.4,0.6-0.6,0.8c-0.3,0.2-0.6,0.4-0.9,0.5S71.1,16,70.7,16
		c-0.4,0-0.8-0.1-1.1-0.2c-0.3-0.1-0.6-0.3-0.9-0.5c-0.3-0.2-0.5-0.5-0.6-0.8c-0.1-0.3-0.2-0.7-0.2-1.1v-2c0-0.4,0.1-0.7,0.2-1.1
		c0.2-0.3,0.4-0.6,0.6-0.8c0.3-0.2,0.6-0.4,0.9-0.5C69.9,9.1,70.3,9,70.7,9c0.4,0,0.8,0.1,1.1,0.2c0.3,0.1,0.6,0.3,0.9,0.5
		c0.3,0.2,0.4,0.5,0.6,0.8c0.1,0.3,0.2,0.7,0.2,1.1V13.5z M72.3,11.7c0-0.3-0.1-0.5-0.2-0.7c-0.1-0.2-0.2-0.4-0.4-0.5
		c-0.2-0.1-0.3-0.2-0.5-0.3c-0.2-0.1-0.4-0.1-0.6-0.1c-0.2,0-0.4,0-0.6,0.1c-0.2,0.1-0.4,0.1-0.5,0.3c-0.2,0.1-0.3,0.3-0.4,0.5
		c-0.1,0.2-0.2,0.5-0.2,0.7v1.5c0,0.3,0,0.5,0.1,0.7c0.1,0.2,0.2,0.4,0.4,0.5c0.1,0.1,0.3,0.2,0.5,0.3c0.2,0.1,0.4,0.1,0.6,0.1
		c0.2,0,0.4,0,0.6-0.1c0.2-0.1,0.4-0.1,0.5-0.3c0.2-0.1,0.3-0.3,0.4-0.5c0.1-0.2,0.2-0.5,0.2-0.7V11.7z"/>
	<path fill="#646464" d="M78.4,10.2c-0.6,0.1-1.1,0.2-1.5,0.3c-0.4,0.2-0.7,0.3-0.9,0.4v4.9h-1.2V9.1h1l0.1,1h0
		c0.1-0.1,0.3-0.2,0.5-0.4s0.4-0.2,0.6-0.4c0.2-0.1,0.4-0.2,0.7-0.3S78.2,9,78.4,9V10.2z"/>
	<path fill="#646464" d="M82,9c0.4,0,0.8,0.1,1.1,0.3c0.3,0.2,0.5,0.4,0.7,0.8c0.3-0.2,0.5-0.4,0.7-0.5c0.2-0.1,0.4-0.2,0.6-0.3
		c0.2-0.1,0.3-0.1,0.5-0.2c0.1,0,0.3,0,0.4,0c0.7,0,1.2,0.2,1.5,0.5c0.4,0.4,0.6,0.9,0.6,1.7v4.7h-1.2v-4.4c0-0.5-0.1-0.8-0.3-1
		s-0.5-0.3-0.9-0.3c-0.2,0-0.5,0.1-0.8,0.2c-0.3,0.1-0.6,0.4-1,0.6c0,0.1,0,0.2,0,0.2c0,0.1,0,0.1,0,0.2v4.4h-1.2v-4.5
		c0-0.5-0.1-0.8-0.3-1c-0.2-0.2-0.4-0.3-0.7-0.3c-0.3,0-0.6,0.1-0.8,0.2c-0.3,0.1-0.6,0.3-1,0.6v5h-1.2V9.1h1l0.1,0.8
		c0.2-0.2,0.5-0.3,0.7-0.4c0.2-0.1,0.4-0.2,0.5-0.3S81.4,9,81.6,9C81.7,9,81.8,9,82,9z"/>
	<path fill="#646464" d="M93.3,15.2c-0.5,0.3-1,0.5-1.3,0.6C91.6,15.9,91.3,16,91,16c-0.7,0-1.2-0.2-1.6-0.6s-0.6-0.9-0.6-1.5
		c0-0.4,0.1-0.7,0.3-1s0.4-0.5,0.6-0.6c0.3-0.2,0.5-0.3,0.8-0.3c0.3-0.1,0.5-0.1,0.8-0.1h2v-0.5c0-0.5-0.1-0.8-0.4-1
		c-0.3-0.2-0.6-0.3-1.1-0.3c-0.2,0-0.5,0-0.9,0.1c-0.3,0.1-0.7,0.2-1,0.5l-0.6-0.9c0.4-0.3,0.9-0.6,1.3-0.7C91.1,9.1,91.5,9,91.9,9
		c0.9,0,1.6,0.2,2,0.6c0.4,0.4,0.6,1,0.6,1.8v4.5h-1L93.3,15.2L93.3,15.2z M93.3,12.9h-1.8c-0.1,0-0.3,0-0.5,0S90.7,13,90.6,13
		c-0.1,0.1-0.3,0.2-0.4,0.3c-0.1,0.1-0.1,0.3-0.1,0.6c0,0.3,0.1,0.6,0.3,0.7s0.5,0.2,0.9,0.2c0.2,0,0.4,0,0.5-0.1
		c0.2-0.1,0.4-0.1,0.6-0.2c0.2-0.1,0.4-0.2,0.5-0.2c0.2-0.1,0.3-0.2,0.5-0.2V12.9z"/>
	<path fill="#646464" d="M99.8,15.7c-0.3,0.1-0.5,0.2-0.8,0.2c-0.3,0-0.5,0-0.6,0c-0.7,0-1.3-0.2-1.6-0.5s-0.5-0.9-0.5-1.7v-3.7h-1
		V9.1h1l0.3-1.6h0.9v1.6h1.9v1.1h-1.9v3.3c0,0.3,0,0.5,0.1,0.7c0.1,0.2,0.1,0.3,0.2,0.4c0.1,0.1,0.2,0.2,0.3,0.2s0.3,0.1,0.4,0.1
		c0.2,0,0.3,0,0.5,0c0.2,0,0.4,0,0.6-0.1L99.8,15.7z"/>
	<path fill="#646464" d="M101.9,7c0,0.2-0.1,0.4-0.2,0.5c-0.1,0.1-0.3,0.2-0.5,0.2c-0.2,0-0.4-0.1-0.5-0.2c-0.1-0.1-0.2-0.3-0.2-0.5
		c0-0.2,0.1-0.4,0.2-0.5c0.1-0.1,0.3-0.2,0.5-0.2c0.2,0,0.4,0.1,0.5,0.2C101.8,6.6,101.9,6.8,101.9,7z M100.6,15.9V9.1h1.2v6.8
		H100.6z"/>
	<path fill="#646464" d="M105.7,14.3l0.8-2.5l0.9-2.7h1.3l-2.4,6.8H105l-2.4-6.8h1.3l0.9,2.7L105.7,14.3L105.7,14.3z"/>
	<path fill="#646464" d="M114.8,13.5c0,0.4-0.1,0.7-0.2,1.1c-0.2,0.3-0.4,0.6-0.6,0.8c-0.3,0.2-0.6,0.4-0.9,0.5S112.4,16,112,16
		c-0.4,0-0.8-0.1-1.1-0.2c-0.3-0.1-0.6-0.3-0.9-0.5c-0.3-0.2-0.5-0.5-0.6-0.8c-0.1-0.3-0.2-0.7-0.2-1.1v-2c0-0.4,0.1-0.7,0.2-1.1
		c0.2-0.3,0.4-0.6,0.6-0.8c0.3-0.2,0.6-0.4,0.9-0.5c0.3-0.1,0.7-0.2,1.1-0.2c0.4,0,0.8,0.1,1.1,0.2c0.3,0.1,0.6,0.3,0.9,0.5
		c0.3,0.2,0.4,0.5,0.6,0.8c0.1,0.3,0.2,0.7,0.2,1.1V13.5z M113.6,11.7c0-0.3-0.1-0.5-0.2-0.7c-0.1-0.2-0.2-0.4-0.4-0.5
		c-0.2-0.1-0.3-0.2-0.5-0.3c-0.2-0.1-0.4-0.1-0.6-0.1c-0.2,0-0.4,0-0.6,0.1c-0.2,0.1-0.4,0.1-0.5,0.3c-0.2,0.1-0.3,0.3-0.4,0.5
		c-0.1,0.2-0.2,0.5-0.2,0.7v1.5c0,0.3,0,0.5,0.1,0.7c0.1,0.2,0.2,0.4,0.4,0.5c0.1,0.1,0.3,0.2,0.5,0.3c0.2,0.1,0.4,0.1,0.6,0.1
		c0.2,0,0.4,0,0.6-0.1c0.2-0.1,0.4-0.1,0.5-0.3c0.2-0.1,0.3-0.3,0.4-0.5c0.1-0.2,0.2-0.5,0.2-0.7V11.7z"/>
	<path fill="#646464" d="M121,13.9c0,0.3-0.1,0.6-0.2,0.9s-0.3,0.5-0.6,0.6c-0.2,0.2-0.5,0.3-0.8,0.4c-0.3,0.1-0.7,0.1-1.1,0.1
		c-0.5,0-0.9-0.1-1.4-0.2c-0.5-0.1-0.9-0.4-1.4-0.7l0.6-0.9c0.3,0.3,0.7,0.5,1,0.6c0.4,0.1,0.7,0.2,1.2,0.2c0.2,0,0.3,0,0.5-0.1
		s0.3-0.1,0.5-0.2c0.1-0.1,0.2-0.2,0.3-0.3c0.1-0.1,0.1-0.3,0.1-0.5c0-0.3-0.1-0.5-0.3-0.6s-0.5-0.2-0.8-0.3c-0.3-0.1-0.7-0.1-1-0.2
		c-0.3-0.1-0.7-0.2-0.9-0.3c-0.3-0.1-0.5-0.3-0.7-0.6c-0.2-0.2-0.3-0.5-0.3-0.9c0-0.3,0.1-0.6,0.2-0.9c0.1-0.3,0.3-0.5,0.5-0.6
		c0.2-0.2,0.5-0.3,0.8-0.4s0.6-0.1,1-0.1c0.5,0,1,0.1,1.4,0.2c0.4,0.1,0.8,0.3,1.1,0.6l-0.6,0.9c-0.3-0.2-0.6-0.3-0.9-0.4
		c-0.3-0.1-0.6-0.1-1-0.1c-0.4,0-0.7,0.1-1,0.3c-0.2,0.2-0.4,0.4-0.4,0.7c0,0.2,0.1,0.4,0.3,0.5c0.2,0.1,0.5,0.2,0.8,0.3
		c0.3,0.1,0.6,0.1,1,0.2s0.7,0.2,1,0.3c0.3,0.1,0.6,0.3,0.8,0.6C120.9,13.2,121,13.5,121,13.9z"/>
</g>
</svg>
