<?xml version="1.0" encoding="utf-8"?>
<!-- Generator: Adobe Illustrator 18.0.0, SVG Export Plug-In . SVG Version: 6.00 Build 0)  -->
<!DOCTYPE svg PUBLIC "-//W3C//DTD SVG 1.1//EN" "http://www.w3.org/Graphics/SVG/1.1/DTD/svg11.dtd">
<svg version="1.1" id="Camada_1" xmlns="http://www.w3.org/2000/svg" xmlns:xlink="http://www.w3.org/1999/xlink" x="0px" y="0px"
	 viewBox="0 0 20.6 29.3" enable-background="new 0 0 20.6 29.3" xml:space="preserve">
<path fill="#FFFFFF" d="M17.8,8.6c1.1,0,1.1-0.2,1.7-1.2c0.8-1.4,1.1-2.6,1.1-4.1c0-0.8-0.1-0.7-0.6-1.2c-0.5-0.5-1.2-0.9-1.9-1.2
	c-0.1,2.6-0.8,5.3-2.4,7.4C16.4,8.4,17.1,8.6,17.8,8.6z"/>
<path fill="#FFFFFF" d="M16.4,0.2C15.9,0,14.7,0,14.2,0c-1.1,0-2.2,0.1-2.9,0.8C9.4,2.6,7.4,5.4,6,7.5c-2.7,4.5-6,11.3-6,16.7
	c0,0.6-0.1,0.9,0.3,1.4c0.1,0.1,0.2,0.2,0.3,0.4c0,0.1,0.1,0.1,0.1,0.2C0.9,26.2,1,26.3,1,26.4c0.1,0.1,0.3,0.2,0.4,0.4
	c0.1,0,0.1,0.1,0.1,0.1c0.1,0,0.1,0.1,0.2,0.2c0.1,0,0.2,0.1,0.3,0.2c0.3,0.1,0.7,0.4,1.3,0.4c1.6,0,4.6-4.3,4.6-6.2
	c0-0.9-1.1-0.9-1.1-2.6c0-1.9,3.1-8.1,4.5-9.6c0.8-0.9,1.2-1.1,2.3-1.2c0.5-0.1,0.8-0.1,1.2-0.6c1.2-1.8,1.8-4,1.8-6.1
	C16.6,0.9,16.6,0.4,16.4,0.2z"/>
<path fill="#FFFFFF" d="M4.4,28.2c0.5,0.4,2.1,1.1,2.7,1.1c1.5,0,3.9-3.7,3.9-5.2c0-1.1-1.4-1.7-2.1-2.4C8.2,24.4,6.8,26.8,4.4,28.2
	z"/>
</svg>
