<?xml version="1.0" encoding="utf-8"?>
<!-- Generator: Adobe Illustrator 18.0.0, SVG Export Plug-In . SVG Version: 6.00 Build 0)  -->
<!DOCTYPE svg PUBLIC "-//W3C//DTD SVG 1.1//EN" "http://www.w3.org/Graphics/SVG/1.1/DTD/svg11.dtd">
<svg version="1.1" id="Camada_1" xmlns="http://www.w3.org/2000/svg" xmlns:xlink="http://www.w3.org/1999/xlink" x="0px" y="0px"
	 viewBox="0 0 15 16" enable-background="new 0 0 15 16" xml:space="preserve">
<path fill-rule="evenodd" clip-rule="evenodd" fill="#1970AA" d="M11.4,2.6L11.4,2.6v0.6l1.1,0l0-3.2l-1.1,0l0,1.6V2.6z M3.6,2.6
	l0-1.5l0-1.1L2.5,0v2.6l0,0.6l1.1,0L3.6,2.6z M3.6,4.6h7.8c-0.6-0.2-1-0.7-1-1.4c0-0.3,0.1-0.5,0.2-0.8V1.5H4.3v1
	c0.2,0.2,0.2,0.5,0.2,0.8C4.6,3.9,4.2,4.4,3.6,4.6z M12.4,4.6H15l0-3.1l-1.8,0v1c0.2,0.2,0.2,0.5,0.2,0.8C13.4,3.9,13,4.4,12.4,4.6z
	 M15,16l0-10.7H0v5.9h4.3c0.1,0,0.3,0,0.4,0.1c0,0,0,0,0,0l0,0l0,0C4.9,11.4,5,11.6,5,11.9V16L15,16z M4.3,15.5v-3.6l-3.8,0
	L4.3,15.5z M1.6,3.2c0-0.3,0.1-0.6,0.2-0.8V1.5H0v3.1h2.6C2,4.4,1.6,3.9,1.6,3.2z"/>
</svg>
