<?xml version="1.0" encoding="utf-8"?>
<!-- Generator: Adobe Illustrator 18.0.0, SVG Export Plug-In . SVG Version: 6.00 Build 0)  -->
<!DOCTYPE svg PUBLIC "-//W3C//DTD SVG 1.1//EN" "http://www.w3.org/Graphics/SVG/1.1/DTD/svg11.dtd">
<svg version="1.1" id="Camada_1" xmlns="http://www.w3.org/2000/svg" xmlns:xlink="http://www.w3.org/1999/xlink" x="0px" y="0px"
	 viewBox="0 0 16.3 22.2" enable-background="new 0 0 16.3 22.2" xml:space="preserve">
<path fill="#A2A9B1" d="M7.6,4.2c0.5-0.7,0.3-0.8-0.1-1.6C7,1.6,6.4,0.9,5.4,0.2C5-0.1,5,0,4.4,0.1C3.9,0.3,3.3,0.5,2.9,0.8
	c1.6,1.2,3,2.7,3.6,4.6C6.9,5.1,7.3,4.7,7.6,4.2z"/>
<path fill="#A2A9B1" d="M1.8,1.7c-0.3,0.2-0.8,0.9-1,1.3C0.3,3.6-0.1,4.3,0,5.1C0.3,7,1.2,9.4,2,11.2c1.7,3.6,4.6,8.5,7.9,10.7
	c0.4,0.2,0.6,0.4,1,0.4c0.1,0,0.2,0,0.4,0c0.1,0,0.1,0,0.2,0c0.1,0,0.2,0,0.3-0.1c0.1,0,0.3-0.1,0.4-0.1c0,0,0.1,0,0.1,0
	c0.1,0,0.1,0,0.2-0.1c0.1,0,0.1-0.1,0.2-0.1c0.2-0.1,0.5-0.3,0.8-0.7c0.7-1-0.8-4.6-2-5.4c-0.6-0.4-1,0.3-2.1-0.4
	C8.2,14.5,5.6,10,5.2,8.5C5,7.6,5.1,7.3,5.5,6.5c0.2-0.4,0.3-0.6,0.1-1C5,4.1,3.8,2.8,2.5,1.9C2.3,1.8,2,1.5,1.8,1.7z"/>
<path fill="#A2A9B1" d="M14.3,20.8c0.5-0.1,1.6-0.9,1.8-1.2c0.6-0.9-0.7-4-1.6-4.6c-0.7-0.4-1.6,0.2-2.4,0.3
	C13.5,16.8,14.5,18.7,14.3,20.8z"/>
</svg>
