<?xml version="1.0" encoding="utf-8"?>
<!-- Generator: Adobe Illustrator 18.0.0, SVG Export Plug-In . SVG Version: 6.00 Build 0)  -->
<!DOCTYPE svg PUBLIC "-//W3C//DTD SVG 1.1//EN" "http://www.w3.org/Graphics/SVG/1.1/DTD/svg11.dtd">
<svg version="1.1" id="Camada_1" xmlns="http://www.w3.org/2000/svg" xmlns:xlink="http://www.w3.org/1999/xlink" x="0px" y="0px"
	 viewBox="0 0 126 26" enable-background="new 0 0 126 26" xml:space="preserve">
<path fill-rule="evenodd" clip-rule="evenodd" fill="#195B94" d="M108.4,0h8.8v26h-8.8V0z"/>
<path fill-rule="evenodd" clip-rule="evenodd" fill="#195B94" d="M100,8.8h26v8.8h-26V8.8z"/>
<g>
	<path fill="#646464" d="M11,13.2c0,0.6-0.1,1.2-0.4,1.6s-0.6,0.9-1,1.2c-0.4,0.3-0.9,0.6-1.5,0.8s-1.3,0.3-2,0.3
		c-0.9,0-1.8-0.1-2.7-0.4C2.5,16.5,1.7,16,1,15.4l1-1.3c0.6,0.4,1.3,0.8,1.9,1c0.7,0.2,1.4,0.4,2.1,0.4c0.9,0,1.7-0.2,2.2-0.6
		s0.8-1,0.8-1.7c0-0.5-0.1-0.8-0.3-1.1c-0.2-0.3-0.5-0.5-0.8-0.7c-0.3-0.2-0.7-0.3-1.1-0.4c-0.4-0.1-0.8-0.2-1.2-0.3
		c-0.5-0.1-1.1-0.2-1.6-0.4c-0.5-0.2-1-0.4-1.3-0.7S2.1,9,1.9,8.5c-0.2-0.4-0.4-1-0.4-1.6c0-0.6,0.1-1.1,0.3-1.6
		C2,4.8,2.3,4.4,2.7,4.1s0.9-0.6,1.4-0.8C4.7,3.1,5.3,3,6,3C6.8,3,7.6,3,8.3,3.2C9.1,3.3,9.8,3.6,10.5,4L9.6,5.6
		C9,5.3,8.4,5,7.8,4.9C7.2,4.7,6.6,4.6,6,4.6c-0.4,0-0.7,0-1,0.1C4.6,4.9,4.3,5,4.1,5.2C3.9,5.4,3.7,5.6,3.5,5.9
		C3.4,6.2,3.3,6.6,3.3,7s0.1,0.7,0.3,0.9c0.2,0.2,0.5,0.4,0.8,0.6s0.6,0.3,1,0.4C5.7,9,6.1,9,6.4,9.1C7,9.2,7.5,9.4,8.1,9.5
		c0.5,0.2,1,0.4,1.5,0.7c0.4,0.3,0.8,0.7,1,1.1C10.8,11.8,11,12.4,11,13.2z"/>
	<path fill="#646464" d="M18.4,16c-0.8,0.4-1.4,0.7-1.9,0.9s-1,0.2-1.4,0.2c-1,0-1.7-0.3-2.3-0.8c-0.6-0.5-0.9-1.3-0.9-2.2
		c0-0.5,0.1-1,0.4-1.4c0.2-0.4,0.6-0.7,0.9-0.9s0.8-0.4,1.2-0.5s0.8-0.1,1.1-0.1h2.9v-0.8c0-0.7-0.2-1.2-0.6-1.4
		c-0.4-0.3-0.9-0.4-1.7-0.4c-0.3,0-0.8,0-1.3,0.1s-1,0.4-1.5,0.8l-0.8-1.3c0.6-0.5,1.3-0.8,1.9-1C15.2,7.1,15.8,7,16.3,7
		c1.3,0,2.3,0.3,2.9,0.9c0.6,0.6,0.9,1.4,0.9,2.6V17h-1.5L18.4,16L18.4,16z M18.4,12.6h-2.6c-0.2,0-0.4,0-0.7,0
		c-0.2,0-0.5,0.1-0.7,0.2s-0.4,0.3-0.5,0.5c-0.1,0.2-0.2,0.5-0.2,0.8c0,0.5,0.2,0.8,0.5,1.1c0.3,0.2,0.7,0.4,1.3,0.4
		c0.3,0,0.5,0,0.8-0.1s0.5-0.2,0.8-0.3c0.3-0.1,0.5-0.2,0.8-0.4c0.2-0.1,0.5-0.2,0.7-0.4V12.6z"/>
	<path fill="#646464" d="M24,4.1c0,0.3-0.1,0.5-0.3,0.8c-0.2,0.2-0.5,0.3-0.8,0.3c-0.3,0-0.5-0.1-0.7-0.3c-0.2-0.2-0.3-0.5-0.3-0.8
		c0-0.3,0.1-0.5,0.3-0.8C22.4,3.1,22.7,3,23,3c0.3,0,0.5,0.1,0.8,0.3C23.9,3.5,24,3.8,24,4.1z M22.1,17V7.1h1.7V17H22.1z"/>
	<path fill="#646464" d="M33.9,13.6c0,1.1-0.3,2-0.9,2.6c-0.6,0.6-1.4,0.9-2.4,0.9c-0.3,0-0.8-0.1-1.3-0.2c-0.5-0.1-1.1-0.4-1.9-0.8
		L27.3,17h-1.5V2.7h1.7v5.4c0.8-0.5,1.5-0.8,2-0.9C29.9,7.1,30.3,7,30.7,7c1.1,0,1.9,0.3,2.4,0.9c0.5,0.6,0.8,1.5,0.8,2.6V13.6z
		 M32.2,10.7c0-0.8-0.2-1.3-0.5-1.6c-0.3-0.3-0.7-0.5-1.3-0.5C30,8.7,29.5,8.8,29,9c-0.5,0.2-1,0.5-1.6,0.9v4.5
		c0.2,0.1,0.5,0.3,0.7,0.4c0.3,0.1,0.5,0.2,0.8,0.3s0.5,0.2,0.8,0.2s0.5,0.1,0.7,0.1c0.5,0,0.9-0.2,1.3-0.5c0.3-0.3,0.5-0.9,0.5-1.6
		V10.7z"/>
	<path fill="#646464" d="M41.7,16c-0.8,0.4-1.4,0.7-1.9,0.9s-1,0.2-1.4,0.2c-1,0-1.7-0.3-2.3-0.8c-0.6-0.5-0.9-1.3-0.9-2.2
		c0-0.5,0.1-1,0.4-1.4c0.2-0.4,0.6-0.7,0.9-0.9s0.8-0.4,1.2-0.5s0.8-0.1,1.1-0.1h2.9v-0.8c0-0.7-0.2-1.2-0.6-1.4
		c-0.4-0.3-0.9-0.4-1.7-0.4c-0.3,0-0.8,0-1.3,0.1s-1,0.4-1.5,0.8l-0.8-1.3c0.6-0.5,1.3-0.8,1.9-1C38.4,7.1,39.1,7,39.6,7
		c1.3,0,2.3,0.3,2.9,0.9c0.6,0.6,0.9,1.4,0.9,2.6V17h-1.5L41.7,16L41.7,16z M41.7,12.6h-2.6c-0.2,0-0.4,0-0.7,0
		c-0.2,0-0.5,0.1-0.7,0.2s-0.4,0.3-0.5,0.5C37,13.5,37,13.8,37,14.1c0,0.5,0.2,0.8,0.5,1.1c0.3,0.2,0.7,0.4,1.3,0.4
		c0.3,0,0.5,0,0.8-0.1s0.5-0.2,0.8-0.3c0.3-0.1,0.5-0.2,0.8-0.4c0.2-0.1,0.5-0.2,0.7-0.4V12.6z"/>
	<path fill="#646464" d="M55.9,12.5l1.7-3.7l2.7-5.6h1.7V17h-1.8V7.6h-0.1l-1.3,2.7L56.5,15h-1.4L53,10.7l-1.5-3h-0.1V17h-1.8V3.2
		h1.8l2.8,5.6l1.7,3.7H55.9z"/>
	<path fill="#646464" d="M70,16c-0.8,0.4-1.4,0.7-1.9,0.9s-0.9,0.2-1.3,0.2c-1,0-1.7-0.3-2.3-0.8c-0.6-0.5-0.9-1.3-0.9-2.2
		c0-0.5,0.1-1,0.4-1.4c0.2-0.4,0.6-0.7,0.9-0.9c0.4-0.2,0.8-0.4,1.2-0.5c0.4-0.1,0.8-0.1,1.1-0.1h2.9v-0.8c0-0.7-0.2-1.2-0.6-1.4
		s-0.9-0.4-1.7-0.4c-0.3,0-0.8,0-1.3,0.1S65.6,9,65,9.5l-0.8-1.3c0.6-0.5,1.3-0.8,1.9-1C66.8,7.1,67.4,7,68,7c1.3,0,2.3,0.3,2.9,0.9
		c0.6,0.6,0.9,1.4,0.9,2.6V17h-1.5L70,16L70,16z M70.1,12.6h-2.6c-0.2,0-0.4,0-0.7,0c-0.2,0-0.5,0.1-0.7,0.2s-0.4,0.3-0.5,0.5
		c-0.1,0.2-0.2,0.5-0.2,0.8c0,0.5,0.2,0.8,0.5,1.1c0.3,0.2,0.7,0.4,1.3,0.4c0.3,0,0.5,0,0.8-0.1s0.5-0.2,0.8-0.3
		c0.3-0.1,0.5-0.2,0.8-0.4c0.2-0.1,0.5-0.2,0.7-0.4V12.6z"/>
	<path fill="#646464" d="M75.7,4.1c0,0.3-0.1,0.5-0.3,0.8c-0.2,0.2-0.5,0.3-0.8,0.3c-0.3,0-0.5-0.1-0.7-0.3
		c-0.2-0.2-0.3-0.5-0.3-0.8c0-0.3,0.1-0.5,0.3-0.8C74.1,3.1,74.3,3,74.6,3c0.3,0,0.5,0.1,0.8,0.3C75.6,3.5,75.7,3.8,75.7,4.1z
		 M73.8,17V7.1h1.7V17H73.8z"/>
	<path fill="#646464" d="M85,14.2c0,0.5-0.1,0.9-0.3,1.2c-0.2,0.4-0.5,0.7-0.8,0.9c-0.3,0.3-0.8,0.5-1.2,0.6s-1,0.2-1.6,0.2
		c-0.7,0-1.4-0.1-2-0.3s-1.3-0.5-2-1l0.9-1.3c0.5,0.4,1,0.7,1.5,0.9c0.5,0.2,1.1,0.2,1.7,0.2c0.2,0,0.5,0,0.7-0.1
		c0.2-0.1,0.5-0.1,0.7-0.3c0.2-0.1,0.3-0.3,0.5-0.5s0.2-0.4,0.2-0.7c0-0.4-0.2-0.7-0.5-0.9s-0.7-0.3-1.2-0.4c-0.5-0.1-1-0.2-1.5-0.3
		c-0.5-0.1-1-0.3-1.3-0.4c-0.4-0.2-0.7-0.5-1-0.8c-0.3-0.3-0.4-0.8-0.4-1.3c0-0.5,0.1-0.9,0.3-1.2c0.2-0.4,0.4-0.7,0.8-0.9
		c0.3-0.3,0.7-0.4,1.1-0.6S80.5,7,81,7c0.7,0,1.4,0.1,2,0.2s1.1,0.4,1.7,0.8l-0.9,1.3c-0.5-0.3-0.9-0.5-1.4-0.6
		C82,8.6,81.5,8.5,81,8.5c-0.6,0-1.1,0.1-1.4,0.4S79,9.5,79,9.9c0,0.3,0.1,0.6,0.4,0.8c0.3,0.2,0.7,0.3,1.1,0.4s0.9,0.2,1.4,0.3
		s1,0.2,1.4,0.4c0.4,0.2,0.8,0.5,1.1,0.8C84.8,13,85,13.5,85,14.2z"/>
</g>
</svg>
